<svg id="Layer_1" data-name="Layer 1" xmlns="http://www.w3.org/2000/svg" width="140" height="26" viewBox="0 0 140 26">
  <defs>
    <style>
      .cls-1, .cls-2 {
        fill: #fff;
      }

      .cls-2 {
        opacity: 0.8;
      }
    </style>
  </defs>
  <g>
    <path class="cls-1" d="M15.60143,22.4552H7.01809v9.28848H1.5V9.18187H7.01809V18.0202h8.58334V9.18187h5.51809V31.74368H15.60143Z" transform="translate(-1.5 -6)"/>
    <path class="cls-1" d="M33.2876,32c-5.29171,0-9.29346-3.5347-9.29346-9.22282,0-5.68891,4.09866-9.2244,9.35859-9.2244,5.29172,0,9.3578,3.53549,9.3578,9.2244C42.71053,28.4653,38.58011,32,33.2876,32Zm0-4.75618c1.9691,0,3.80794-1.44616,3.80794-4.46664,0-3.05371-1.80707-4.46743-3.74281-4.46743-2.00087,0-3.74359,1.41372-3.74359,4.46743C29.60914,25.79766,31.28752,27.24382,33.2876,27.24382Z" transform="translate(-1.5 -6)"/>
    <path class="cls-1" d="M45.65028,7.96117h5.51809V31.74368H45.65028Z" transform="translate(-1.5 -6)"/>
    <path class="cls-1" d="M54.65461,8.98962a3.289,3.289,0,0,1,6.5507,0,3.29255,3.29255,0,0,1-6.5507,0Zm.51631,4.82027H60.689V31.74368H55.17092Z" transform="translate(-1.5 -6)"/>
    <path class="cls-2" d="M71.533,13.55278a6.61722,6.61722,0,0,1,5.54987,2.73172V7.96117h5.51888V31.74368H77.08283V29.17255A6.2322,6.2322,0,0,1,71.533,32c-4.42035,0-7.93756-3.59878-7.93756-9.25526S67.11261,13.55278,71.533,13.55278Zm1.61325,4.78862c-2.06521,0-3.93661,1.54267-3.93661,4.40334s1.8714,4.46743,3.93661,4.46743c2.09858,0,3.93662-1.57511,3.93662-4.435C77.08283,19.91651,75.24479,18.3414,73.14621,18.3414Z" transform="translate(-1.5 -6)"/>
    <path class="cls-2" d="M93.44726,13.55278a6.27125,6.27125,0,0,1,5.54907,2.79659V13.80989h5.51888V31.74368H98.99633V29.205A6.37474,6.37474,0,0,1,93.4139,32c-4.38779,0-7.905-3.59878-7.905-9.25526S89.02611,13.55278,93.44726,13.55278Zm1.61245,4.78862c-2.06521,0-3.93661,1.54267-3.93661,4.40334s1.8714,4.46743,3.93661,4.46743c2.09858,0,3.93662-1.57511,3.93662-4.435C98.99633,19.91651,97.15829,18.3414,95.05971,18.3414Z" transform="translate(-1.5 -6)"/>
    <path class="cls-2" d="M121.32922,18.1808l-7.64764,9.03137h7.80968v4.53151h-13.972V27.37277l7.4856-9.03137h-7.42205V13.80989h13.74637Z" transform="translate(-1.5 -6)"/>
    <path class="cls-2" d="M132.529,32c-5.29171,0-9.09964-3.5347-9.09964-9.22282,0-5.68891,3.7428-9.2244,9.09964-9.2244,5.25994,0,8.971,3.47141,8.971,8.93485a14.04464,14.04464,0,0,1-.09691,1.60676H128.91491c.19381,2.34644,1.64582,3.439,3.42031,3.439a2.936,2.936,0,0,0,2.87223-1.7357h5.87315C140.20845,29.30072,137.01372,32,132.529,32Zm-3.58235-10.95853h6.90576a3.10824,3.10824,0,0,0-3.38854-3.08535A3.40848,3.40848,0,0,0,128.94668,21.04147Z" transform="translate(-1.5 -6)"/>
  </g>
</svg>
